<svg version="1.1" xmlns="http://www.w3.org/2000/svg" viewBox="0 0 178.82352941176464 65.58823529411762">
  <!-- svg-source:excalidraw -->
  
  <defs>
    <style>
      @font-face {
        font-family: "Virgil";
        src: url("https://excalidraw.com/FG_Virgil.woff2");
      }
      @font-face {
        font-family: "Cascadia";
        src: url("https://excalidraw.com/Cascadia.woff2");
      }
    </style>
  </defs>
  <rect x="0" y="0" width="178.82352941176464" height="65.58823529411762" fill="#ffffff"></rect><g stroke-opacity="0.3" fill-opacity="0.3" transform="translate(10 10) rotate(0 79.41176470588232 22.794117647058812)"><path d="M0 0 C0 0, 0 0, 0 0 M0 0 C0 0, 0 0, 0 0 M-0.22189942148047181 7.073164003391854 C1.3960175359823084 4.5372507872516925, 3.0837953073423545 1.824763820751118, 5.468798338206953 0.5039380270836168 M-0.007391444188530161 6.387735862706892 C1.3864492711020056 4.261005219472226, 3.3965028107399595 1.859688886290278, 4.793295851307458 0.5233929015544467 M-0.5920365459192886 11.584070523500024 C5.863199536346105 6.704300415421983, 8.881096402494027 1.6227535948364202, 9.444765162420405 -0.8422339071437954 M-0.044017128543962336 12.22936664786893 C2.6187429584526862 9.885037162080906, 4.163265692482238 7.182045233024945, 10.53537946562184 -0.5992040705785393 M-1.108887259899662 17.063394264225536 C4.125426276219332 11.279962935154328, 9.101168549912082 8.928884426156692, 14.53118245816179 1.7464032645267418 M-0.587834680504189 18.792454263102883 C4.656747332506342 14.906724195814792, 7.764483097787686 10.13693946691268, 14.841969848148008 -0.23549471079139206 M1.192388555239818 23.748307168199776 C10.089415591840094 12.912165026276524, 17.66892835612806 4.760294703077339, 19.38688257736888 -1.9938860317528722 M-0.14170506482950707 23.715172801814138 C6.472882972098157 18.396213592722482, 11.224414078421196 10.76133571800621, 20.83704109424528 0.6078821089282158 M0.6315487465401546 30.630039714042297 C4.64106503620977 22.36530871269098, 13.889018686877558 18.074984278845275, 25.58963455320558 -0.8139059791329561 M-0.19469687896320664 30.9274510412926 C6.1127192369475996 22.708645135222447, 14.26106163516176 15.328286032052436, 25.5687392015498 0.5465742446494044 M1.6289956047106067 37.56746874731158 C6.49687100384577 30.318954930758668, 13.710512406219191 22.041425790689182, 32.276446580371655 1.0487138127221947 M-0.12087194352415409 37.71104790717487 C12.691312362862304 21.949826083453722, 23.61407293205803 9.004337377344473, 31.991912940933204 0.3254044792860036 M-0.2561967045395619 43.24954923856609 C13.126200517330753 26.940121107175617, 29.153393634786873 9.635740332867982, 35.786262612604844 -0.48223981996062193 M-0.28550301663121047 42.60455826259755 C8.172529767963692 32.969000623262474, 15.759553759356685 22.993060694355943, 37.60221402980511 -0.6913801458570639 M2.8612178594989004 47.00781428336432 C15.907407474805122 29.8812575835432, 33.82823600453221 9.025864520687094, 42.0959345946049 0.4532597631542927 M1.8611762060967507 45.99716290819725 C12.230559658900916 33.08369072921225, 24.29700282371193 20.28740784807915, 42.590819364037145 -0.9640349728659743 M7.692275270516266 47.1194559418192 C17.357515209130888 34.221122117994454, 28.274530618966164 25.47786416738876, 46.75925023010957 -0.4983443517062618 M6.002339149521877 46.21295942166502 C14.08049717930286 38.16961961948135, 24.196072914758098 29.05482695956755, 48.502208786038935 -0.1458910854358031 M11.056770174269253 45.41221146060306 C19.715022535967858 33.90270504588429, 31.59587812121598 22.981754186371308, 51.34290521381861 -0.12936927420657796 M12.956285098072762 46.89709837975133 C27.19849568315948 30.863990091564922, 38.93386759995039 14.887460172650371, 52.3888873166821 0.47271804934728223 M18.975287149495603 48.2844770509427 C27.96143067713166 34.0359861435033, 43.84704954350818 17.79517739837264, 59.36553099946977 0.1792843318801367 M17.48722045665902 47.817147136261084 C31.75237645108073 30.434972716466376, 46.349184029590276 14.206402159814346, 57.469162923376274 0.5958832227881992 M21.168818765895075 47.00838872817383 C37.98897732088154 27.400809713200516, 53.55801948626113 13.581615072926141, 64.73366703176279 0.2329556068895826 M23.52362680865229 45.947420661608135 C34.308532153749184 34.0041764002492, 45.29798448429501 19.927126417300745, 63.28186875199307 0.4781928428007731 M28.997793352205413 47.57999895352323 C39.880502615176106 35.24819217744538, 46.63249780074011 24.650369465927152, 67.68078851443543 0.8734001370485558 M27.816038683962184 47.100408184597384 C39.553511114023095 32.63642643356513, 52.587399998348594 19.808586864582093, 68.34414089494213 -0.44384042431007487 M33.24198819913586 47.248809572549405 C41.976240294342496 36.30632343214003, 52.51786473852615 27.83654340330252, 75.20327864218744 1.753613312692778 M32.435706761969826 47.23755613086546 C47.1729169139815 31.440031348986388, 59.20836159632428 17.251720711487895, 74.30614062309506 0.004293704369501938 M37.31985247239569 48.59440055581081 C56.07049315618238 28.634973868824954, 69.88187406610074 7.71281726221418, 80.99945636875657 1.1880069700490168 M39.71267078455636 46.32714686354893 C49.68701787617045 34.46737104275581, 60.60950181418998 22.943997228059224, 78.6088321538615 -0.6334702298556039 M44.50783012572262 47.603058739534234 C60.40035166860867 30.739209236645497, 72.72754124336217 12.212074823013744, 85.90554863884256 -2.0727672505470025 M44.17383246913138 47.20217742395273 C53.08495425428975 37.46135973768127, 61.10985273705056 25.90590854502762, 84.63870488311306 0.11229993092845802 M49.720273103816425 48.1973107640554 C58.29014611684455 34.346580172410036, 72.6468493369061 24.14009544764274, 89.83471815618316 -0.9916412628684981 M50.04161871156654 47.8711424699907 C57.81074908293177 36.35581145799989, 67.31119819745058 25.455674804472455, 90.38555115325937 0.2679606030265944 M55.44846911041485 46.086099715601094 C71.37933964305958 28.942671379905814, 84.88318279821978 10.254758030982444, 96.21303561547816 1.5296928234202483 M53.89175935427146 48.149460917967744 C69.72508043000065 29.058594505726607, 85.16657990099384 10.117773324354523, 96.5971884851721 -1.0271341806473515 M60.19661384021764 46.539608484507035 C68.84604883401774 37.51258940743354, 78.67325042433414 26.63790075408992, 99.91850747046524 0.5009593445460254 M60.80800941811775 47.21554930079771 C74.97136279657593 29.78053447467277, 89.05702557384294 14.867256800611464, 101.43723734626079 -0.8892061287884658 M66.42083874696254 48.23943640699999 C80.29053501814597 32.77762012885411, 92.94879955802725 15.961248209733107, 107.7170481658442 -1.3818775591554626 M65.03992687051505 46.242248409785496 C73.281722895204 36.32639333521704, 82.42073285857376 27.334924510128594, 106.63984338239712 -1.1339793334829196 M68.96518327534932 45.053422623415685 C87.38148644782736 30.11985922676034, 100.44668845938132 12.809195325261015, 110.20150790535278 -1.886437301457427 M70.15759485733497 45.95289665284494 C82.85592135987677 33.499827128947295, 94.45898477991301 19.366090216880764, 112.1674551859907 0.3547463715742012 M75.00062262911571 45.88582271998092 C88.00556444818716 31.583488513612885, 101.75279173153854 17.380978629653185, 117.57158585470023 -0.7143899118013692 M75.70939947098715 47.25275669628098 C91.41913324360786 30.155595510664327, 104.77093867673163 12.619334842470678, 115.70948749892267 -0.06412165048048024 M80.46104000296148 48.45213208703139 C96.20582402270763 32.27039460295331, 108.31924307467767 16.449672894899088, 122.8531530545958 0.575172705371159 M81.37675198234322 46.78508882300743 C96.55391626933758 29.046500336730162, 111.88179171341724 11.827062115043006, 122.62039412557414 -0.9310900990103903 M85.98225435062434 47.129262560793876 C100.1122529757209 30.654996967992478, 114.88921991578792 12.912875664251843, 127.11757533377721 0.6423655112869753 M85.63186660881277 47.5625775743292 C94.57421377945408 38.135804479774244, 103.9812610257875 28.218607829591974, 126.85774084585472 0.17179900478941335 M93.33799261680409 46.73036578160411 C101.37733202324465 33.48988466315776, 112.3355136574826 21.38510225047642, 133.26162651194426 -1.1039567287182166 M91.89248274626746 46.523405108160134 C105.7952433019666 28.79232566688084, 121.93762668294553 13.348229762631014, 133.48086861813607 -0.06824874366724032 M97.37891750523846 46.35500983568886 C107.26846234311627 32.56489236282323, 121.84458477572088 18.641140936416065, 135.9465161678347 1.343977196582344 M97.17964273711692 47.162677840805145 C107.51703069465793 36.5938829121198, 116.48019549656331 24.345868615389833, 138.30867134732782 0.9366465094245342 M102.46859971062717 45.16400261338386 C116.02575671678028 28.15748266587807, 133.21735985358282 12.297104196877015, 144.03386187114822 0.3676783025244248 M102.27241410223273 47.088499805178074 C114.50612359006072 33.413909353465584, 125.51501734089294 19.962298863533423, 143.07431811680155 0.23111223447862983 M106.42254568670802 46.22956845091589 C117.75517499941674 35.150220929219074, 127.71886263950287 21.970581488719585, 146.5247169506226 0.5725740503347652 M108.36566730902456 46.65339929258384 C119.1716059011814 33.478951469120744, 130.4998293236216 21.073942484151836, 149.0830309564669 0.9479501602999107 M112.94416987818073 46.31017148862064 C121.41143837548574 33.78587920493068, 130.9500579111782 25.757620542017925, 154.99554272595765 -1.4371682946509026 M113.22479800336401 46.51040221093625 C123.65857842486868 35.16513509516456, 134.56074750738156 22.58826575478305, 154.36680707469554 0.8642096323022344 M119.56382248878307 47.70069231272494 C135.5287859956344 28.20393143948587, 150.85944390316905 12.60389448967134, 157.53723627589102 0.7915349787942034 M117.84350477766074 46.24445872654026 C126.54753814862748 37.54687307854006, 134.33649959807076 26.931009853729645, 159.34219662639703 0.03261425429050746 M122.07476171321476 48.00725131356445 C134.59156930620247 34.85638776401694, 147.76398822581493 21.82940347651494, 159.94263043819848 5.373184027787971 M124.59851140278631 45.92851662230966 C132.10366683229304 38.90744268720984, 137.65211139860432 29.316712329979985, 158.71655271301898 5.375311888460743 M130.47218150521357 47.99738532736602 C140.53856543348704 31.883145254346402, 150.90787588619136 20.8702063214432, 159.39093827354176 13.820842171775027 M127.90734459615041 46.75494793954941 C137.6935868146738 37.39548742409788, 144.61688980332855 27.223020311082145, 158.89122584639503 12.202271371835693 M133.38918380947928 45.37487099446531 C141.23267861625587 41.17610367188664, 148.22839547880017 32.87355069584271, 158.4822495726302 17.68869875631384 M134.38305625362466 46.591622336173316 C144.1088700498376 37.35397705183212, 153.1117212009676 26.132706043925705, 158.71481045590636 19.63509538005195 M138.03580632974956 46.62990140108913 C144.661984291203 39.44619303408088, 150.93830193946187 34.710033827054865, 159.70532600117298 22.61102125196288 M139.49200121761862 46.613333728486296 C147.22957962818563 37.91409380213066, 155.44953403817084 28.22888459626733, 159.66969003343405 24.427222526246112 M145.9789357317337 45.56861901779596 C148.29072766807207 41.8135753243447, 152.88079845784824 39.97248456276334, 160.6569240129079 32.37878399494896 M145.05250048001346 47.61258322962497 C147.3066775906063 44.70629247005415, 150.370747633173 39.73691933376138, 157.81011004638776 29.821806101723112 M148.85611090284303 47.25056009428051 C152.5567534881768 43.07096992398228, 154.93959427025715 41.20535955067051, 158.23361307207875 35.73639953716932 M149.42400938017755 46.877959509337664 C151.60795135988286 44.32705162786605, 154.6220725069407 42.33320673008108, 159.24100623375185 36.01170665932162 M155.03457288995338 47.12849433593274 C156.14686552194507 45.88624821382098, 157.17227297406694 44.825140636177565, 158.80667106933808 42.199123529238676 M155.05475387835827 47.484985628852705 C156.4242790739615 46.027605322084554, 157.09563880800354 44.48737901021184, 158.91577464478007 42.53781368936045" stroke="#4c6ef5" stroke-width="0.5" fill="none"></path><path d="M-1.8056159783154726 1.111110733821988 C60.800361811019016 -0.1571548958582909, 125.76099772718456 1.094550691051957, 156.91665390385856 1.2123578656464815 M-0.7376078432425857 0.9317988371476531 C62.21942700593566 0.8011115803657203, 122.82464853876868 1.0625444962917, 158.56094451034983 0.764223805628717 M157.49515703572501 -1.8629638087004423 C159.72319024101387 13.362391699078103, 160.21984719530235 24.470668425728718, 157.1809897149967 46.554532609551245 M159.76972074593027 -0.398108490742743 C159.6279430250664 13.338264148764525, 158.6367456476231 27.240033478640445, 159.6098187991472 46.56325363800585 M157.54875371112098 46.89038952407151 C125.59100977024606 48.10005410042972, 92.8027432921397 46.41353870955677, -0.766511457040906 45.31369247254639 M157.94239721978624 46.45619630501329 C114.14789275425098 45.811506155001744, 70.04045436690174 45.99789062427245, 0.22482832614332438 46.27636655852854 M1.3988141845911741 43.747739694683844 C1.7898422205574152 29.88882610467535, -0.5043447887771491 9.935905022601425, 1.0128962229937315 1.5135801304131746 M0.06377729121595621 46.18185957953989 C0.8417244395378101 35.79383154829743, -0.6683881142971051 27.972750500392372, 0.9154891902580857 -0.4212970519438386" stroke="#000000" stroke-width="1" fill="none"></path></g><g transform="translate(19.458204334365178 21.39473684210526) rotate(0 38.5 15.5)"><text x="0" y="23" font-family="Virgil, Segoe UI Emoji" font-size="20px" fill="#1864ab" text-anchor="start" style="white-space: pre;" direction="ltr">fanstat</text></g></svg>